<svg width="294" height="70" viewBox="0 0 294 70" fill="none" xmlns="http://www.w3.org/2000/svg">
<path fill-rule="evenodd" clip-rule="evenodd" d="M48.6911 31.6448C48.6879 28.1888 49.2499 24.7556 50.3548 21.4815C47.2665 20.1735 43.9481 19.4975 40.595 19.4934C40.6745 20.2276 40.7146 20.9656 40.7151 21.7041C40.716 24.7931 40.0159 27.8419 38.6676 30.6201C37.3193 33.3982 35.3582 35.8331 32.9324 37.7407C30.5066 39.6482 27.6796 40.9785 24.6651 41.631C21.6506 42.2836 18.5274 42.2413 15.5316 41.5073C15.3911 42.5814 15.3188 43.6634 15.3154 44.7467C15.325 50.2774 17.1462 55.6522 20.4996 60.0463C23.853 64.4404 28.5534 67.611 33.8794 69.0715C39.2053 70.5321 44.8627 70.2019 49.9833 68.1316C55.1038 66.0614 59.4047 62.3654 62.2258 57.611C58.0451 54.6982 54.6304 50.815 52.2735 46.2933C49.9166 41.7716 48.6875 36.7457 48.6911 31.6448Z" fill="#00AEEF"/>
<path fill-rule="evenodd" clip-rule="evenodd" d="M40.541 19.4934H40.604C40.2007 15.7845 38.7892 12.2575 36.5231 9.29655C34.257 6.33555 31.2232 4.05404 27.7521 2.70046C24.2809 1.34688 20.5056 0.973117 16.837 1.61987C13.1685 2.26663 9.74745 3.90911 6.94642 6.36846C4.14539 8.82781 2.07175 12.0097 0.951319 15.5678C-0.169116 19.1258 -0.293398 22.9236 0.592004 26.5474C1.47741 30.1713 3.33855 33.4824 5.97278 36.1202C8.607 38.758 11.9133 40.6213 15.5317 41.5073C16.3202 35.4218 19.293 29.8318 23.8951 25.7808C28.4973 21.7299 34.4141 19.495 40.541 19.4934Z" fill="#00AEEF"/>
<path fill-rule="evenodd" clip-rule="evenodd" d="M15.5317 41.5073C18.5278 42.2413 21.6512 42.2836 24.6659 41.6309C27.6807 40.9782 30.5078 39.6476 32.9337 37.7397C35.3595 35.8318 37.3206 33.3966 38.6687 30.618C40.0168 27.8395 40.7166 24.7903 40.7152 21.7011C40.7147 20.9626 40.6746 20.2246 40.5951 19.4904H40.541C34.4137 19.4921 28.4965 21.7274 23.8943 25.7789C19.2921 29.8305 16.3195 35.4213 15.5317 41.5073Z" fill="#0077E0"/>
<path fill-rule="evenodd" clip-rule="evenodd" d="M80.2861 0C73.6818 0.000130229 67.2434 2.0721 61.8751 5.92494C56.5067 9.77778 52.4781 15.218 50.3549 21.4815C53.6667 22.8862 56.6403 24.984 59.0763 27.6341C61.5123 30.2843 63.3543 33.4255 64.4788 36.8471C65.6033 40.2687 65.9844 43.8916 65.5963 47.4728C65.2082 51.054 64.0601 54.5107 62.2289 57.611C67.1904 61.0724 73.0394 63.0353 79.0816 63.2667C85.1237 63.498 91.1053 61.9882 96.3163 58.9163C95.4799 56.7671 95.1796 54.446 95.4416 52.1543C95.7036 49.8626 96.5198 47.6695 97.8195 45.7652C99.1193 43.861 100.863 42.3031 102.9 41.2267C104.937 40.1503 107.206 39.5879 109.509 39.5884C109.965 39.5884 110.41 39.6124 110.857 39.6545C112.077 34.9737 112.209 30.0753 111.244 25.3352C110.279 20.5951 108.243 16.1396 105.291 12.3106C102.339 8.48164 98.5504 5.3811 94.2158 3.24706C89.8812 1.11302 85.116 0.00224108 80.2861 0V0Z" fill="#00AEEF"/>
<path fill-rule="evenodd" clip-rule="evenodd" d="M50.3548 21.4815C48.1634 27.9796 48.1362 35.0143 50.2774 41.5292C52.4185 48.044 56.6123 53.6871 62.2288 57.611C64.0601 54.5107 65.2082 51.054 65.5963 47.4728C65.9843 43.8916 65.6033 40.2687 64.4788 36.8471C63.3543 33.4255 61.5122 30.2843 59.0763 27.6341C56.6403 24.984 53.6666 22.8862 50.3548 21.4815Z" fill="#0077E0"/>
<path fill-rule="evenodd" clip-rule="evenodd" d="M110.857 39.6545C110.416 39.6124 109.956 39.5884 109.509 39.5884C107.206 39.5879 104.937 40.1503 102.9 41.2267C100.863 42.3031 99.1193 43.861 97.8196 45.7652C96.5198 47.6695 95.7036 49.8626 95.4416 52.1543C95.1796 54.446 95.4799 56.7671 96.3163 58.9163C103.511 54.6687 108.737 47.7452 110.857 39.6545Z" fill="#0077E0"/>
<path fill-rule="evenodd" clip-rule="evenodd" d="M110.854 39.6545C108.729 47.7389 103.505 54.6566 96.3163 58.9043C97.2284 61.2579 98.7513 63.325 100.728 64.8921C102.704 66.4591 105.062 67.4693 107.559 67.8183C110.055 68.1673 112.6 67.8424 114.929 66.8773C117.258 65.9121 119.288 64.3416 120.809 62.3281C122.329 60.3145 123.286 57.9308 123.579 55.4233C123.873 52.9157 123.492 50.3752 122.478 48.0641C121.463 45.7529 119.851 43.755 117.807 42.2766C115.764 40.7983 113.363 39.8931 110.854 39.6545Z" fill="#00AEEF"/>
<path d="M131.317 44.0579C131.317 36.2377 135.956 31.2538 144.335 31.2538C152.713 31.2538 157.311 36.2317 157.311 44.0579V62.8836H153.899V44.0579C153.899 38.0815 150.596 34.3819 144.335 34.3819C138.073 34.3819 134.725 38.0815 134.725 44.0579V62.8836H131.317V44.0579Z" fill="black"/>
<path d="M162.945 31.8824H185.672V35.0105H166.368V45.5859H182.939V48.717H166.368V59.7675H185.687V62.8956H162.945V31.8824Z" fill="black"/>
<path d="M191.02 31.8824H204.42C211.9 31.8824 215.215 36.0542 215.215 41.7449C215.215 47.3905 211.852 51.6706 204.42 51.6706H194.428V62.9077H191.02V31.8824ZM204.468 48.5275C209.816 48.5275 211.759 45.5859 211.759 41.7449C211.759 37.904 209.816 35.0105 204.468 35.0105H194.428V48.5154L204.468 48.5275Z" fill="black"/>
<path d="M219.381 31.8824H222.789V45.5859H242.867V31.8824H246.276V62.8836H242.867V48.7049H222.789V62.8836H219.381V31.8824Z" fill="black"/>
<path d="M252.762 31.8824H256.159V62.8836H252.762V31.8824Z" fill="black"/>
<path d="M261.048 47.3785C261.048 38.0815 267.865 31.2538 277.525 31.2538C287.186 31.2538 293.997 38.0815 293.997 47.3785C293.997 56.6756 287.18 63.5002 277.522 63.5002C267.865 63.5002 261.048 56.6725 261.048 47.3785ZM290.592 47.3785C290.592 39.8831 285.24 34.3819 277.525 34.3819C269.811 34.3819 264.456 39.8831 264.456 47.3785C264.456 54.8739 269.808 60.3721 277.525 60.3721C285.243 60.3721 290.592 54.8709 290.592 47.3785Z" fill="black"/>
</svg>
